<?xml version="1.0" encoding="UTF-8"?>
<svg width="24px" height="24px" viewBox="0 0 24 24" version="1.1" xmlns="http://www.w3.org/2000/svg">
    <g stroke="none" stroke-width="1" fill="none" fill-rule="evenodd">
        <path d="M17.05,20.28c-.98.95-2.05.88-3.08.41-1.09-.47-2.09-.48-3.24,0-1.44.62-2.2.44-3.06-.41C2.79,15.25,3.51,7.59,9.05,7.31c1.35.07,2.29.74,3.08.8,1.18-.05,2.31-.7,3.57-.84,1.51-.15,2.98.87,3.94,2.31-3.14,2.04-2.62,6.03.69,7.14-.75,2.22-1.73,4.43-3.19,6.16zM12.03,7.25c-.15-2.23,1.66-4.07,3.74-4.25.29,2.58-2.34,4.5-3.74,4.25z" fill="#000000"></path>
    </g>
</svg> 