<?xml version="1.0" encoding="UTF-8"?>
<svg width="24px" height="24px" viewBox="0 0 24 24" version="1.1" xmlns="http://www.w3.org/2000/svg">
    <g stroke="none" stroke-width="1" fill="none" fill-rule="evenodd">
        <path d="M12.545,10.239v3.821h5.445c-0.712,2.315-2.647,3.972-5.445,3.972c-3.332,0-6.033-2.701-6.033-6.032s2.701-6.032,6.033-6.032c1.498,0,2.866,0.549,3.921,1.453l2.814-2.814C17.503,2.988,15.139,2,12.545,2C7.021,2,2.543,6.477,2.543,12s4.478,10,10.002,10c8.396,0,10.249-7.85,9.426-11.748L12.545,10.239z" fill="#4285F4"></path>
        <path d="M3.097,12c0-2.44,0.878-4.68,2.337-6.392l2.814,2.814C7.491,9.606,7.007,10.759,7.007,12c0,1.241,0.484,2.394,1.261,3.578l-2.814,2.814C3.975,16.68,3.097,14.44,3.097,12z" fill="#FBBC05"></path>
        <path d="M12.545,22c2.583,0,4.93-0.988,6.744-2.605l-2.814-2.814c-1.055,0.903-2.423,1.452-3.93,1.452c-2.798,0-5.733-1.657-6.445-3.972l-2.814,2.814C4.975,21.32,7.021,22,12.545,22z" fill="#EA4335"></path>
        <path d="M21.972,12c0,0.738-0.059,1.276-0.189,1.838h-9.238v-3.821h9.143c0.101,0.572,0.158,1.117,0.158,1.783z" fill="#34A853"></path>
    </g>
</svg> 